<?xml version="1.0" encoding="utf-8"?>
<!-- Generator: Adobe Illustrator 23.0.4, SVG Export Plug-In . SVG Version: 6.00 Build 0)  -->
<svg version="1.1" id="Layer_1" xmlns="http://www.w3.org/2000/svg" xmlns:xlink="http://www.w3.org/1999/xlink" x="0px" y="0px"
	 viewBox="0 0 32 32" style="enable-background:new 0 0 32 32;" xml:space="preserve">
<style type="text/css">
	.st0{fill:#36534A;}
	.st1{fill:none;}
	.st2{enable-background:new    ;}
	.st3{fill:#FFFFFF;}
</style>
<rect x="-0.1" class="st0" width="32.1" height="32"/>
<rect x="-0.1" y="3.5" class="st1" width="32" height="24.9"/>
<g class="st2">
	<path class="st3" d="M11.1,10.8v9H10v-5.6l-3.2,4.5h0l-3.1-4.4v5.5H2.5v-9h0l4.3,6L11.1,10.8L11.1,10.8z"/>
	<path class="st3" d="M18.2,17.4h-3.3l-0.9,2.3h-1.2l3.8-9h0.1l3.8,9h-1.3L18.2,17.4z M17.8,16.4l-1.2-3.2l-1.3,3.2H17.8z"/>
	<path class="st3" d="M21.6,13.2c0.4-0.7,0.9-1.2,1.6-1.6s1.4-0.6,2.2-0.6c0.8,0,1.5,0.2,2.2,0.6s1.2,0.9,1.6,1.6
		c0.4,0.7,0.6,1.4,0.6,2.2c0,0.8-0.2,1.5-0.6,2.2c-0.4,0.7-0.9,1.2-1.6,1.6c-0.7,0.4-1.4,0.6-2.2,0.6c-0.8,0-1.5-0.2-2.2-0.6
		c-0.7-0.4-1.2-0.9-1.6-1.6C21.2,17,21,16.2,21,15.4C21,14.6,21.2,13.9,21.6,13.2z M22.7,17.1c0.3,0.5,0.7,0.9,1.2,1.2
		c0.5,0.3,1,0.4,1.6,0.4s1.1-0.1,1.6-0.4s0.9-0.7,1.2-1.2c0.3-0.5,0.4-1.1,0.4-1.7s-0.1-1.2-0.4-1.7s-0.7-0.9-1.2-1.2
		s-1-0.4-1.6-0.4s-1.1,0.2-1.6,0.5s-0.9,0.7-1.2,1.2c-0.3,0.5-0.4,1.1-0.4,1.7C22.2,16,22.4,16.5,22.7,17.1z"/>
</g>
</svg>
