<?xml version="1.0" encoding="utf-8"?>
<!-- Generator: Adobe Illustrator 23.0.4, SVG Export Plug-In . SVG Version: 6.00 Build 0)  -->
<svg version="1.1" id="Layer_1" xmlns="http://www.w3.org/2000/svg" xmlns:xlink="http://www.w3.org/1999/xlink" x="0px" y="0px"
	 viewBox="0 0 109 109" style="enable-background:new 0 0 109 109;" xml:space="preserve">
<style type="text/css">
	.st0{fill:#36534A;}
	.st1{fill:none;}
	.st2{enable-background:new    ;}
	.st3{fill:#FFFFFF;}
</style>
<rect x="-0.1" y="0.1" class="st0" width="109.1" height="108.8"/>
<rect x="-0.1" y="12" class="st1" width="108.8" height="84.6"/>
<g class="st2">
	<path class="st3" d="M38,36.8v30.6h-3.7v-19L23.3,63.7l0,0l-10.5-15v18.7H8.7V36.8l0,0l14.6,20.4L38,36.8L38,36.8z"/>
	<path class="st3" d="M62.1,59.3H50.9l-3.1,7.8h-4.1l12.9-30.6H57l12.9,30.6h-4.4L62.1,59.3z M60.7,55.9L56.7,45l-4.4,10.9H60.7z"/>
	<path class="st3" d="M73.6,45c1.4-2.4,3.1-4.1,5.4-5.4s4.8-2,7.5-2s5.1,0.7,7.5,2s4.1,3.1,5.4,5.4c1.4,2.4,2,4.8,2,7.5
		c0,2.7-0.7,5.1-2,7.5c-1.4,2.4-3.1,4.1-5.4,5.4s-4.8,2-7.5,2c-2.7,0-5.1-0.7-7.5-2s-4.1-3.1-5.4-5.4c-1.4-2-2-4.8-2-7.5
		C71.6,49.7,72.3,47.4,73.6,45z M77.4,58.2c1,1.7,2.4,3.1,4.1,4.1c1.7,1,3.4,1.4,5.4,1.4s3.7-0.3,5.4-1.4s3.1-2.4,4.1-4.1
		c1-1.7,1.4-3.7,1.4-5.8s-0.3-4.1-1.4-5.8s-2.4-3.1-4.1-4.1c-1.7-1-3.4-1.4-5.4-1.4s-3.7,0.7-5.4,1.7c-1.7,1-3.1,2.4-4.1,4.1
		c-1,1.7-1.4,3.7-1.4,5.8C75.7,54.5,76.4,56.2,77.4,58.2z"/>
</g>
</svg>
